<?xml version="1.0" encoding="utf-8"?>
<!-- Generator: Adobe Illustrator 22.0.1, SVG Export Plug-In . SVG Version: 6.00 Build 0)  -->
<svg version="1.1" id="Layer_1" xmlns="http://www.w3.org/2000/svg" xmlns:xlink="http://www.w3.org/1999/xlink" x="0px" y="0px"
	 viewBox="0 0 200 200" style="enable-background:new 0 0 200 200;" xml:space="preserve">
<style type="text/css">
	.st0{fill:#FFFFFF;}
	.st1{fill:#414042;}
	.st2{fill:#F1F2F2;}
	.st3{fill:#1A1A1A;}
</style>
<g>
	<g>
		<g>
			<path class="st2" d="M98.5,8.5C56,8.5,20.2,37.5,10,76.9h17.1c9.8-30.1,38-51.9,71.4-51.9c5.2,0,10.4,0.5,15.3,1.6l8.6-14.8
				C114.8,9.6,106.8,8.5,98.5,8.5z"/>
		</g>
	</g>
	<g>
		<g>
			<path class="st2" d="M162.5,34.6L154,49.4c12.2,13.3,19.6,31.1,19.6,50.6s-7.4,37.2-19.6,50.6l8.5,14.8
				c17-16.6,27.5-39.8,27.5-65.4C190,74.4,179.5,51.2,162.5,34.6z"/>
		</g>
	</g>
	<g>
		<g>
			<path class="st2" d="M113.8,173.5c-4.9,1-10.1,1.6-15.3,1.6c-33.4,0-61.7-21.8-71.4-51.9H10c10.2,39.3,46,68.4,88.5,68.4
				c8.3,0,16.3-1.1,23.9-3.2L113.8,173.5z"/>
		</g>
	</g>
</g>
</svg>
