<?xml version="1.0" encoding="utf-8"?>
<!-- Generator: Adobe Illustrator 22.0.1, SVG Export Plug-In . SVG Version: 6.00 Build 0)  -->
<svg version="1.1" id="Layer_1" xmlns="http://www.w3.org/2000/svg" xmlns:xlink="http://www.w3.org/1999/xlink" x="0px" y="0px"
	 viewBox="0 0 200 200" style="enable-background:new 0 0 200 200;" xml:space="preserve">
<style type="text/css">
	.st0{fill:#FFFFFF;}
	.st1{fill:#414042;}
	.st2{fill:#F1F2F2;}
	.st3{fill:#1A1A1A;}
</style>
<g>
	<g>
		<path class="st0" d="M87.5,105.2L64.2,93.6l23.3-11.7v3.7l-16.2,7.9l16.2,7.9V105.2z"/>
		<path class="st0" d="M90,112.7l17.6-40.3h3.5l-17.6,40.3H90z"/>
		<path class="st0" d="M113.7,81.9L137,93.6l-23.3,11.7v-3.7l16.2-7.9l-16.2-7.9V81.9z"/>
	</g>
	<g>
		<path class="st0" d="M94.2,166.6H63.9c-2.7,0-4.9-2.2-4.9-4.9V34.8H50v132.8c0,7.9,6.4,14.3,14.3,14.3h34.2v-9.1
			C96,171.8,94.2,169.4,94.2,166.6z"/>
		<path class="st0" d="M116,21.8h19.8c2.7,0,4.9,2.2,4.9,4.9v122.1h9.3V24.5c0-7.9-6.4-14.3-14.3-14.3H64.3c-7,0-12.8,5-14,11.6
			h13.7H116z"/>
		<path class="st0" d="M113,166.6h-5.9c0,2.8-1.8,5.2-4.3,6.1v9.1h32.9c7.9,0,14.3-6.4,14.3-14.3v-1h-14.2H113z"/>
	</g>
</g>
</svg>
