<?xml version="1.0" encoding="utf-8"?>
<!-- Generator: Adobe Illustrator 22.0.1, SVG Export Plug-In . SVG Version: 6.00 Build 0)  -->
<svg version="1.1" id="Layer_1" xmlns="http://www.w3.org/2000/svg" xmlns:xlink="http://www.w3.org/1999/xlink" x="0px" y="0px"
	 viewBox="0 0 200 200" style="enable-background:new 0 0 200 200;" xml:space="preserve">
<style type="text/css">
	.st0{fill:#FFFFFF;}
	.st1{fill:#414042;}
	.st2{fill:#F1F2F2;}
	.st3{fill:#1A1A1A;}
</style>
<path class="st0" d="M58.3,45.6l-29,0c-1.5,0-2.8,1.2-2.8,2.8l0,6.1c0,1.5,1.2,2.8,2.8,2.8l29,0c1.5,0,2.8-1.2,2.8-2.8l0-6.1
	C61.1,46.8,59.9,45.6,58.3,45.6z"/>
<g>
	<path class="st0" d="M61.1,59.8v85.5h78.3V59.8H61.1z M101.2,131.7C85,131.7,72,118.6,72,102.5c0-16.1,13.1-29.2,29.2-29.2
		s29.2,13.1,29.2,29.2C130.4,118.6,117.3,131.7,101.2,131.7z"/>
	<path class="st0" d="M32.8,59.8c-8.1,0-14.6,6.5-14.6,14.6v56.3c0,8.1,6.5,14.6,14.6,14.6h25V59.8H32.8z"/>
	<path class="st0" d="M169.6,59.8h-26.4v85.5h26.4c8.1,0,14.6-6.5,14.6-14.6V74.3C184.2,66.3,177.6,59.8,169.6,59.8z"/>
</g>
</svg>
